<svg xmlns="http://www.w3.org/2000/svg" viewBox="63 1329 31.62 30">
  <defs>
    <style>
      .cls-1 {
        fill: #fff;
      }
    </style>
  </defs>
  <g id="Group_444" data-name="Group 444" transform="translate(0 768)">
    <path id="Path_56" data-name="Path 56" class="cls-1" d="M9.686,33.435H28.322l3.3-11.77H6.459l-.807-3.227A3.58,3.58,0,0,0,2.22,15.683H0v1.349H2.22a2.228,2.228,0,0,1,2.155,1.684L7.944,32.68a2.923,2.923,0,0,0-1.22,2.381,2.991,2.991,0,0,0,2.962,2.962H27.851V36.675H9.686a1.62,1.62,0,0,1,0-3.239ZM29.871,22.943l-2.555,9.15H9.15L6.459,21.665H30.219Z" transform="translate(63 545.317)"/>
    <path id="Path_57" data-name="Path 57" class="cls-1" d="M372.843,487.171a2.826,2.826,0,0,0,0,5.653A2.8,2.8,0,0,0,375.67,490,2.842,2.842,0,0,0,372.843,487.171Zm0,4.375a1.549,1.549,0,0,1,0-3.1A1.521,1.521,0,0,1,374.392,490,1.566,1.566,0,0,1,372.843,491.546Z" transform="translate(-287.91 98.176)"/>
    <path id="Path_58" data-name="Path 58" class="cls-1" d="M172.152,487.171A2.826,2.826,0,1,0,174.979,490,2.842,2.842,0,0,0,172.152,487.171Zm0,4.375A1.549,1.549,0,1,1,173.7,490,1.566,1.566,0,0,1,172.152,491.546Z" transform="translate(-97.582 98.176)"/>
  </g>
</svg>
