<svg xmlns="http://www.w3.org/2000/svg" width="22.688" height="50" viewBox="0 0 22.688 50">
  <path id="female" d="M42.6,18.876a3.88,3.88,0,1,0-3.969,3.886A3.941,3.941,0,0,0,42.6,18.876M30.195,40.953c1.21-3.274,3.535-9.226,3.535-9.226l1.125,6.464L29.422,53.274h5.694L37.184,65h2.759l2.069-11.726h5.694L42.272,38.191l1.117-6.464s2.33,5.952,3.535,9.226c.866,2.327,3.622,1.379,2.844-.949-1.371-3.966-2.325-6.814-3.791-11.126-1.384-3.966-2.759-4.566-4.825-4.566H35.982c-2.074,0-3.457.6-4.827,4.566-1.469,4.313-2.418,7.16-3.8,11.126-.781,2.326,1.981,3.276,2.839.949" transform="translate(-27.218 -15)" fill="#a4a4a4"/>
</svg>
