<svg id="filter-icon" xmlns="http://www.w3.org/2000/svg" width="19.727" height="14" viewBox="0 0 19.727 14">
  <g id="Слой_1" data-name="Слой 1" transform="translate(0)">
    <path id="Path_446" data-name="Path 446" d="M6.382,0A3.3,3.3,0,0,0,3.173,2.549H.758a.758.758,0,1,0,0,1.515H3.173a3.3,3.3,0,0,0,6.418,0h9.378a.758.758,0,0,0,0-1.515H9.591A3.3,3.3,0,0,0,6.382,0Zm0,5.1A1.783,1.783,0,1,1,8.165,3.316,1.783,1.783,0,0,1,6.382,5.1Z" transform="translate(0)" fill="#fff"/>
    <path id="Path_447" data-name="Path 447" d="M13.371,8.3a3.3,3.3,0,0,0-3.209,2.549H.758a.758.758,0,1,0,0,1.515h9.378a3.3,3.3,0,0,0,6.418,0h2.416a.758.758,0,1,0,0-1.515H16.553A3.3,3.3,0,0,0,13.371,8.3Zm0,5.081A1.783,1.783,0,1,1,15.154,11.6,1.783,1.783,0,0,1,13.371,13.381Z" transform="translate(0 -0.901)" fill="#fff"/>
  </g>
</svg>
