<svg xmlns="http://www.w3.org/2000/svg" width="83.081" height="50" viewBox="0 0 83.081 50">
  <g id="male_female" data-name="male&amp;female" transform="translate(5472.782 -10479)">
    <path id="Path_448" data-name="Path 448" d="M42.6,18.876a3.88,3.88,0,1,0-3.969,3.886A3.941,3.941,0,0,0,42.6,18.876M30.195,40.953c1.21-3.274,3.535-9.226,3.535-9.226l1.125,6.464L29.422,53.274h5.694L37.184,65h2.759l2.069-11.726h5.694L42.272,38.191l1.117-6.464s2.33,5.952,3.535,9.226c.866,2.327,3.622,1.379,2.844-.949-1.371-3.966-2.325-6.814-3.791-11.126-1.384-3.966-2.759-4.566-4.825-4.566H35.982c-2.074,0-3.457.6-4.827,4.566-1.469,4.313-2.418,7.16-3.8,11.126-.781,2.326,1.981,3.276,2.839.949" transform="translate(-5500 10464)" fill="#48ae63"/>
    <path id="Path_449" data-name="Path 449" d="M41.1,13.658A4.379,4.379,0,1,0,36.72,9.279,4.353,4.353,0,0,0,41.1,13.658Zm4.823.61H36.277A5.418,5.418,0,0,0,30.9,19.645V31.4a2.106,2.106,0,1,0,4.213,0V20.7a.277.277,0,1,1,.554,0v.055h0V52.516A2.366,2.366,0,0,0,38.051,54.9h.222a2.366,2.366,0,0,0,2.384-2.384v-16.3a.477.477,0,0,1,.443-.443h0a.477.477,0,0,1,.443.443h0v16.3A2.366,2.366,0,0,0,43.927,54.9h.222a2.366,2.366,0,0,0,2.384-2.384V20.7a.277.277,0,1,1,.554,0v.055h0V31.341a2.106,2.106,0,0,0,4.213,0v-11.7A5.418,5.418,0,0,0,45.922,14.268Z" transform="translate(-5441 10474.1)" fill="#48ae63"/>
  </g>
</svg>
