<svg xmlns="http://www.w3.org/2000/svg" width="50" height="50" viewBox="0 0 50 50">
  <g id="low-high" transform="translate(5328 -9985)">
    <g id="Rectangle_1013" data-name="Rectangle 1013" transform="translate(-5328 9985)" fill="#fff" stroke="#a4a4a4" stroke-width="1">
      <rect width="50" height="50" rx="25" stroke="none"/>
      <rect x="0.5" y="0.5" width="49" height="49" rx="24.5" fill="none"/>
    </g>
    <path id="ic_trending_flat_24px" d="M0,4,4,8V5H19V3H4V0Z" transform="translate(-5294 10001) rotate(90)" fill="#a4a4a4"/>
    <path id="Path_443" data-name="Path 443" d="M5.75,1028.36l-.75,1.5H7.25a3.724,3.724,0,0,1,3.252,1.654,3.241,3.241,0,0,1,.476,1.346H5.75l-.75,1.5h5.792a3.3,3.3,0,0,1-.264.555,3.629,3.629,0,0,1-3.176,1.695H5v1.5c1.83,2.687,3.649,5.5,5.454,8.25h1.7l-5.423-8.249c2.769,0,4.216-1,5.079-2.417a4.725,4.725,0,0,0,.548-1.334H14l.75-1.5H12.475a4.722,4.722,0,0,0-.7-2.145,4.911,4.911,0,0,0-.7-.855H14l.75-1.5Z" transform="translate(-5319 8973.641)" fill="#a4a4a4"/>
  </g>
</svg>
