<?xml version="1.0" encoding="iso-8859-1"?>
<!-- Generator: Adobe Illustrator 19.0.0, SVG Export Plug-In . SVG Version: 6.00 Build 0)  -->
<svg version="1.1" id="Capa_1" xmlns="http://www.w3.org/2000/svg" xmlns:xlink="http://www.w3.org/1999/xlink" x="0px" y="0px"
	 viewBox="0 0 512 512" style="enable-background:new 0 0 512 512;" xml:space="preserve">
<g>
	<path style="fill:#FEDB41;" d="M497,180h-60c-8.284,0-15-6.716-15-15s6.716-15,15-15h60c8.284,0,15,6.716,15,15
		S505.284,180,497,180z"/>
	<path style="fill:#FEDB41;" d="M497,362h-60c-8.284,0-15-6.716-15-15s6.716-15,15-15h60c8.284,0,15,6.716,15,15
		S505.284,362,497,362z"/>
	<path style="fill:#FEDB41;" d="M497,270h-60c-8.284,0-15-6.716-15-15s6.716-15,15-15h60c8.284,0,15,6.716,15,15
		S505.284,270,497,270z"/>
</g>
<path style="fill:#FCBF29;" d="M467,452h-30c-8.284,0-15-6.716-15-15s6.716-15,15-15h30c8.271,0,15-6.729,15-15V105
	c0-8.271-6.729-15-15-15h-30c-8.284,0-15-6.716-15-15s6.716-15,15-15h30c24.813,0,45,20.187,45,45v302
	C512,431.813,491.813,452,467,452z"/>
<g>
	<path style="fill:#FD003A;" d="M407,512H90c-24.813,0-45-20.187-45-45v-30c0-8.284,6.716-15,15-15s15,6.716,15,15v30
		c0,8.271,6.729,15,15,15h317c8.271,0,15-6.729,15-15V45c0-8.271-6.729-15-15-15H90c-8.271,0-15,6.729-15,15v30
		c0,8.284-6.716,15-15,15s-15-6.716-15-15V45C45,20.187,65.187,0,90,0h317c24.813,0,45,20.187,45,45v422
		C452,491.813,431.813,512,407,512z"/>
	<path style="fill:#FD003A;" d="M60,392c-8.284,0-15-6.716-15-15v-90c0-8.284,6.716-15,15-15s15,6.716,15,15v90
		C75,385.284,68.284,392,60,392z"/>
	<path style="fill:#FD003A;" d="M60,242c-8.284,0-15-6.716-15-15v-92c0-8.284,6.716-15,15-15s15,6.716,15,15v92
		C75,235.284,68.284,242,60,242z"/>
</g>
<g>
	<path style="fill:#A4D9F5;" d="M105,150H45c-24.813,0-45-20.187-45-45s20.187-45,45-45h60c24.813,0,45,20.187,45,45
		S129.813,150,105,150z M45,90c-8.271,0-15,6.729-15,15s6.729,15,15,15h60c8.271,0,15-6.729,15-15s-6.729-15-15-15H45z"/>
	<path style="fill:#A4D9F5;" d="M105,302H45c-24.813,0-45-20.187-45-45s20.187-45,45-45h60c24.813,0,45,20.187,45,45
		S129.813,302,105,302z M45,242c-8.271,0-15,6.729-15,15s6.729,15,15,15h60c8.271,0,15-6.729,15-15s-6.729-15-15-15H45z"/>
	<path style="fill:#A4D9F5;" d="M105,452H45c-24.813,0-45-20.187-45-45s20.187-45,45-45h60c24.813,0,45,20.187,45,45
		S129.813,452,105,452z M45,392c-8.271,0-15,6.729-15,15s6.729,15,15,15h60c8.271,0,15-6.729,15-15s-6.729-15-15-15H45z"/>
	<path style="fill:#A4D9F5;" d="M287,150c-57.897,0-105,47.103-105,105c0,35.943,18.126,69.015,48.487,88.467
		c17.186,11.01,36.523,16.56,56.365,16.56c15.983,0,32.295-3.604,48.061-10.856c7.525-3.462,10.82-12.37,7.357-19.896
		c-3.462-7.525-12.368-10.821-19.896-7.358c-25.86,11.898-53.454,10.545-75.703-3.709C224.961,304.298,212,280.669,212,255
		c0-41.355,33.645-75,75-75s75,33.645,75,75c0,8.271-6.729,15-15,15c-8.054,0-14.646-6.38-14.986-14.351
		c-0.002-0.14-0.006-0.281-0.012-0.42C332.001,255.152,332,255.076,332,255c0-24.813-20.187-45-45-45s-45,20.187-45,45
		s20.187,45,45,45c11.516,0,22.031-4.353,29.999-11.494C324.966,295.648,335.483,300,347,300c24.813,0,45-20.187,45-45
		C392,197.103,344.897,150,287,150z M287,270c-8.271,0-15-6.729-15-15s6.729-15,15-15c7.691,0,14.04,5.82,14.895,13.285
		c-0.224,1.363-0.261,2.75-0.106,4.121C300.631,264.535,294.45,270,287,270z"/>
</g>
<g>
</g>
<g>
</g>
<g>
</g>
<g>
</g>
<g>
</g>
<g>
</g>
<g>
</g>
<g>
</g>
<g>
</g>
<g>
</g>
<g>
</g>
<g>
</g>
<g>
</g>
<g>
</g>
<g>
</g>
</svg>
