<svg xmlns="http://www.w3.org/2000/svg" xmlns:xlink="http://www.w3.org/1999/xlink" viewBox="0 0 78 78">
  <defs>
    <style>
      .cls-1, .cls-2 {
        fill: #fff;
      }

      .cls-1 {
        stroke: #707070;
      }

      .cls-3 {
        clip-path: url(#clip-path);
      }

      .cls-4 {
        fill: #f4b844;
      }

      .cls-5 {
        fill: #00efd1;
      }

      .cls-6 {
        fill: #00acea;
      }

      .cls-7 {
        filter: url(#Rectangle_16);
      }
    </style>
    <filter id="Rectangle_16" x="0" y="0" width="78" height="78" filterUnits="userSpaceOnUse">
      <feOffset dy="3" input="SourceAlpha"/>
      <feGaussianBlur stdDeviation="3" result="blur"/>
      <feFlood flood-opacity="0.161"/>
      <feComposite operator="in" in2="blur"/>
      <feComposite in="SourceGraphic"/>
    </filter>
    <clipPath id="clip-path">
      <circle id="Ellipse_63" data-name="Ellipse 63" class="cls-1" cx="30" cy="30" r="30" transform="translate(158 615)"/>
    </clipPath>
  </defs>
  <g id="Group_9" data-name="Group 9" transform="translate(515 -1215)">
    <g id="Group_7" data-name="Group 7">
      <g class="cls-7" transform="matrix(1, 0, 0, 1, -515, 1215)">
        <rect id="Rectangle_16-2" data-name="Rectangle 16" class="cls-2" width="60" height="60" rx="30" transform="translate(9 6)"/>
      </g>
      <g id="Group_6" data-name="Group 6">
        <g id="Mask_Group_3" data-name="Mask Group 3" class="cls-3" transform="translate(-664 606)">
          <g id="goal" transform="translate(168.912 615)">
            <path id="Path_28" data-name="Path 28" class="cls-4" d="M7.287,35.842V1.015a1.015,1.015,0,1,0-2.03,0V35.842a1.015,1.015,0,0,0,2.03,0Zm0,0"/>
            <path id="Path_29" data-name="Path 29" class="cls-5" d="M25.432,51.118H38.121V60H25.432Zm0,0"/>
            <path id="Path_30" data-name="Path 30" class="cls-5" d="M37.244,5.558,32.326,13.14l4.918,7.58H16.569v-4.1h7.376V5.558Zm0,0"/>
            <path id="Path_31" data-name="Path 31" class="cls-6" d="M25.432,51.118V60H12.743V43.5H25.432Zm0,0"/>
            <path id="Path_32" data-name="Path 32" class="cls-6" d="M23.945,5.558V16.622H6.326V1.051h17.62Zm0,0"/>
            <path id="Path_33" data-name="Path 33" class="cls-5" d="M12.743,43.5V60H.055V35.891H12.743Zm0,0"/>
          </g>
        </g>
      </g>
    </g>
  </g>
</svg>
