<svg xmlns="http://www.w3.org/2000/svg" xmlns:xlink="http://www.w3.org/1999/xlink" viewBox="0 0 78 78">
  <defs>
    <style>
      .cls-1 {
        fill: #fff;
      }

      .cls-2 {
        clip-path: url(#clip-path);
      }

      .cls-3 {
        fill: #f29f5c;
      }

      .cls-4 {
        fill: #d37d42;
      }

      .cls-5 {
        fill: #f9c295;
      }

      .cls-6 {
        fill: #e59f6a;
      }

      .cls-7 {
        fill: #5c9cee;
      }

      .cls-8 {
        fill: #3580d3;
      }

      .cls-9 {
        fill: #ed5575;
      }

      .cls-10 {
        fill: #cc3a60;
      }

      .cls-11 {
        fill: #ebeef2;
      }

      .cls-12 {
        filter: url(#Rectangle_17);
      }
    </style>
    <filter id="Rectangle_17" x="0" y="0" width="78" height="78" filterUnits="userSpaceOnUse">
      <feOffset dy="3" input="SourceAlpha"/>
      <feGaussianBlur stdDeviation="3" result="blur"/>
      <feFlood flood-opacity="0.161"/>
      <feComposite operator="in" in2="blur"/>
      <feComposite in="SourceGraphic"/>
    </filter>
    <clipPath id="clip-path">
      <circle id="Ellipse_64" data-name="Ellipse 64" class="cls-1" cx="30" cy="30" r="30" transform="translate(158 493)"/>
    </clipPath>
  </defs>
  <g id="Group_8" data-name="Group 8" transform="translate(657 -1111)">
    <g id="Group_5" data-name="Group 5">
      <g class="cls-12" transform="matrix(1, 0, 0, 1, -657, 1111)">
        <rect id="Rectangle_17-2" data-name="Rectangle 17" class="cls-1" width="60" height="60" rx="30" transform="translate(9 6)"/>
      </g>
      <g id="Mask_Group_2" data-name="Mask Group 2" class="cls-2" transform="translate(-806 624)">
        <g id="handshake" transform="translate(158 504.931)">
          <path id="Path_13" data-name="Path 13" class="cls-3" d="M49.014,29.192,47.49,16.81l-2.856.352h0L39.1,14.044a3.337,3.337,0,0,0-1.943-.415l-8.743.809a3.336,3.336,0,0,0-2.577,1.646L19.673,26.69a1.466,1.466,0,0,0,.75,2.108l.252.1a5.467,5.467,0,0,0,1.481.331l-.781.68L19.813,31.27,15.37,35.06a1.9,1.9,0,0,0-.184,2.679l.451.516a2.44,2.44,0,0,0,3.441.235l1.7,1.948a2.435,2.435,0,0,0,3.441.235l1.7,1.948a2.441,2.441,0,0,0,3.443.237l.922.8a2.441,2.441,0,0,0,3.443.236L34.98,42.8l10.535-8.2.011-.01h4.156Z" transform="translate(0 -11.931)"/>
          <path id="Path_14" data-name="Path 14" class="cls-4" d="M44.5,31.387l-.011.01L33.954,39.6l-1.254,1.1a2.441,2.441,0,0,1-3.443-.236l-.922-.8a2.441,2.441,0,0,1-3.443-.237l-1.7-1.948a2.435,2.435,0,0,1-3.441-.235l-1.7-1.948a2.439,2.439,0,0,1-3.021.144,1.9,1.9,0,0,0,.15,2.295l.451.516a2.44,2.44,0,0,0,3.441.235l1.7,1.948a2.435,2.435,0,0,0,3.441.235l1.7,1.948a2.441,2.441,0,0,0,3.443.237l.922.8a2.441,2.441,0,0,0,3.443.236l1.253-1.093,10.535-8.2.011-.01h4.156l-.46-3.735Z" transform="translate(0 -11.931)"/>
          <path id="Path_15" data-name="Path 15" class="cls-5" d="M46.418,36.742l-5.644-4.867L39.2,30.523l-1.123-.967-4.829-4.162.558-4.747a3.276,3.276,0,0,0-2.38-3.54L20.9,14.193a2.436,2.436,0,0,0-2.818,1.237l-1.324,2.584-5.682-.386L9.624,30.018,8.991,35.4l5.531.368.011.01,11.555,9.96,1.259,1.086a2.441,2.441,0,0,0,3.442-.256l1.685-1.955a2.441,2.441,0,0,0,3.442-.256L37.6,42.4a2.435,2.435,0,0,0,3.44-.254l1.687-1.957a2.44,2.44,0,0,0,3.44-.254l.448-.519a1.9,1.9,0,0,0-.2-2.674Z" transform="translate(0 -11.931)"/>
          <g id="Group_4" data-name="Group 4" transform="translate(26.586 23.329)">
            <path id="Path_16" data-name="Path 16" class="cls-6" d="M46.418,36.742,44.7,35.26a2.015,2.015,0,0,1-.083,2.527l-.475.551a2.59,2.59,0,0,1-3.652.27L38.7,40.684a2.585,2.585,0,0,1-3.652.27l-1.789,2.078A2.591,2.591,0,0,1,29.6,43.3l-1.789,2.076a2.572,2.572,0,0,1-1.227.791l.762.657a2.441,2.441,0,0,0,3.442-.256l1.685-1.955a2.441,2.441,0,0,0,3.442-.256L37.6,42.4a2.435,2.435,0,0,0,3.44-.254l1.687-1.957a2.44,2.44,0,0,0,3.44-.254l.448-.519a1.9,1.9,0,0,0-.2-2.674Z" transform="translate(-26.586 -35.26)"/>
            <path id="Path_17" data-name="Path 17" class="cls-6" d="M43.3,39.541l-3.093-2.667a.879.879,0,1,0-1.148,1.331l3.087,2.662.582-.675a2.433,2.433,0,0,0,.764.444.88.88,0,0,0-.192-1.1Z" transform="translate(-26.586 -35.26)"/>
            <path id="Path_18" data-name="Path 18" class="cls-6" d="M38.356,42.847a.879.879,0,0,0-.183-1.111l-2.778-2.4a.879.879,0,1,0-1.148,1.331l2.778,2.4h0L37.6,42.4A2.43,2.43,0,0,0,38.356,42.847Z" transform="translate(-26.586 -35.26)"/>
          </g>
          <g id="Group_5-2" data-name="Group 5" transform="translate(13.698 1.684)">
            <path id="Path_19" data-name="Path 19" class="cls-3" d="M14.811,35.758l-.669.884a2.187,2.187,0,0,0,.423,3.063h0a2.187,2.187,0,0,0,3.063-.423L18.3,38.4a2.187,2.187,0,0,0-.423-3.063h0a2.187,2.187,0,0,0-3.066.421Z" transform="translate(-13.698 -13.615)"/>
            <path id="Path_20" data-name="Path 20" class="cls-3" d="M18.888,37.617l-1.261,1.665a2.187,2.187,0,0,0,.423,3.063h0a2.187,2.187,0,0,0,3.063-.423l1.261-1.665a2.187,2.187,0,0,0-.423-3.063h0a2.187,2.187,0,0,0-3.063.423Z" transform="translate(-13.698 -13.615)"/>
            <path id="Path_21" data-name="Path 21" class="cls-3" d="M22.832,39.653l-1.718,2.269a2.187,2.187,0,0,0,.423,3.063h0a2.187,2.187,0,0,0,3.063-.423l1.718-2.269A2.187,2.187,0,0,0,25.9,39.23h0a2.187,2.187,0,0,0-3.068.423Z" transform="translate(-13.698 -13.615)"/>
            <path id="Path_22" data-name="Path 22" class="cls-3" d="M26.418,42.162l-1.818,2.4a2.187,2.187,0,0,0,.423,3.063h0a2.187,2.187,0,0,0,3.063-.423L29.9,44.8a2.187,2.187,0,0,0-.423-3.063h0A2.187,2.187,0,0,0,26.418,42.162Z" transform="translate(-13.698 -13.615)"/>
            <path id="Path_23" data-name="Path 23" class="cls-3" d="M44.635,17.16,39.1,14.044a3.337,3.337,0,0,0-1.943-.415l-8.743.809a3.336,3.336,0,0,0-2.577,1.646L19.673,26.69a1.466,1.466,0,0,0,.75,2.108l.252.1a5.479,5.479,0,0,0,6.281-1.787l2.361-3.073s5.675,6.571,11.924-1.1" transform="translate(-13.698 -13.615)"/>
          </g>
          <path id="Path_24" data-name="Path 24" class="cls-7" d="M59.993,36.228,57.1,12.7a.879.879,0,0,0-.98-.765l-6.772.834a3.217,3.217,0,0,0-2.8,3.582l2.325,18.891a3.212,3.212,0,0,0,3.582,2.8l6.772-.834a.879.879,0,0,0,.766-.98Z" transform="translate(0 -11.931)"/>
          <path id="Path_25" data-name="Path 25" class="cls-8" d="M59.993,36.228l-.318-2.582a.918.918,0,0,1-.648.4l-7.1.874a3.365,3.365,0,0,1-3.291-1.6l.237,1.925a3.212,3.212,0,0,0,3.582,2.8l6.772-.834a.879.879,0,0,0,.766-.983Z" transform="translate(0 -11.931)"/>
          <path id="Path_26" data-name="Path 26" class="cls-9" d="M10.654,12.771l-6.772-.834a.879.879,0,0,0-.98.765L.007,36.228a.879.879,0,0,0,.765.98l6.772.834a3.212,3.212,0,0,0,3.582-2.8l2.325-18.891a3.217,3.217,0,0,0-2.8-3.58Z" transform="translate(0 -11.931)"/>
          <path id="Path_27" data-name="Path 27" class="cls-10" d="M.007,36.228l.318-2.582a.918.918,0,0,0,.648.4l7.1.874a3.365,3.365,0,0,0,3.291-1.6l-.237,1.925a3.212,3.212,0,0,1-3.582,2.8L.772,37.207a.879.879,0,0,1-.765-.979Z" transform="translate(0 -11.931)"/>
          <g id="Group_6" data-name="Group 6" transform="translate(3.831 18.831)">
            <circle id="Ellipse_65" data-name="Ellipse 65" class="cls-11" cx="1.699" cy="1.699" r="1.699" transform="translate(48.845 0)"/>
            <circle id="Ellipse_66" data-name="Ellipse 66" class="cls-11" cx="1.699" cy="1.699" r="1.699" transform="translate(0 0)"/>
          </g>
        </g>
      </g>
    </g>
  </g>
</svg>
