<svg xmlns="http://www.w3.org/2000/svg" viewBox="0 0 32 32">
  <defs>
    <style>
      .cls-1 {
        fill: #ff5d5d;
      }

      .cls-2 {
        fill: #fff;
      }

      .cls-3 {
        fill: #72d8ff;
      }
    </style>
  </defs>
  <g id="shopping-bag" transform="translate(-0.499 0)">
    <path id="Path_284" data-name="Path 284" class="cls-1" d="M27,31.5H13A2.5,2.5,0,0,1,10.5,29V10h19V29A2.5,2.5,0,0,1,27,31.5Zm0,0" transform="translate(-9.375 -9.375)"/>
    <path id="Path_285" data-name="Path 285" class="cls-1" d="M378.605,380.219l5.193,5.193a1.494,1.494,0,0,0,2.113-2.113l-5.193-5.193Zm0,0" transform="translate(-354.474 -354.474)"/>
    <path id="Path_286" data-name="Path 286" class="cls-2" d="M205.512,197.508a7.5,7.5,0,1,1-7.5-7.5A7.5,7.5,0,0,1,205.512,197.508Zm0,0" transform="translate(-178.137 -178.133)"/>
    <path id="Path_287" data-name="Path 287" class="cls-3" d="M242.262,236.883a4.875,4.875,0,1,1-4.875-4.875A4.875,4.875,0,0,1,242.262,236.883Zm0,0" transform="translate(-217.512 -217.508)"/>
    <path id="Path_288" data-name="Path 288" d="M228.012,222.008a5.5,5.5,0,1,0,5.5,5.5A5.506,5.506,0,0,0,228.012,222.008Zm0,9.75a4.25,4.25,0,1,1,4.25-4.25A4.255,4.255,0,0,1,228.012,231.758Zm0,0" transform="translate(-208.137 -208.133)"/>
    <path id="Path_289" data-name="Path 289" d="M31.88,28.383l-4.96-4.961A8.122,8.122,0,0,0,20.75,11.3V.625A.625.625,0,0,0,20.125,0h-19A.625.625,0,0,0,.5.625v19a3.129,3.129,0,0,0,3.125,3.125h8.861A8.12,8.12,0,0,0,23.922,26.42l4.961,4.96a2.119,2.119,0,1,0,3-3ZM3.625,21.5A1.877,1.877,0,0,1,1.75,19.626V1.25H19.5V11.259A8.125,8.125,0,0,0,12.033,21.5ZM13,19.375a6.875,6.875,0,1,1,6.875,6.875A6.883,6.883,0,0,1,13,19.375ZM31,30.5a.871.871,0,0,1-1.229,0l-4.8-4.8A8.185,8.185,0,0,0,26.2,24.471l4.8,4.8A.871.871,0,0,1,31,30.5Zm0,0"/>
    <path id="Path_290" data-name="Path 290" d="M301.137,265.012a.625.625,0,1,0,0,1.25,1.564,1.564,0,0,1,1.562,1.562.625.625,0,1,0,1.25,0A2.816,2.816,0,0,0,301.137,265.012Zm0,0" transform="translate(-281.262 -248.449)"/>
    <path id="Path_291" data-name="Path 291" d="M97.754,57.236V54.625a.625.625,0,1,0-1.25,0v2.611a3.375,3.375,0,0,1-6.75,0V54.625a.625.625,0,1,0-1.25,0v2.611a4.625,4.625,0,0,0,9.25,0Zm0,0" transform="translate(-82.504 -50.625)"/>
    <path id="Path_292" data-name="Path 292" d="M41.379,185a.625.625,0,0,0-.625.625v3.124a.625.625,0,1,0,1.25,0v-3.124A.625.625,0,0,0,41.379,185Zm0,0" transform="translate(-37.739 -173.441)"/>
    <path id="Path_293" data-name="Path 293" d="M41.375,271.117a.624.624,0,1,0,.442.183A.629.629,0,0,0,41.375,271.117Zm0,0" transform="translate(-37.735 -254.172)"/>
  </g>
</svg>
