<svg xmlns="http://www.w3.org/2000/svg" viewBox="0 0 32 32">
  <defs>
    <style>
      .cls-1 {
        fill: #4c9ecc;
      }

      .cls-2 {
        fill: #2183a5;
      }

      .cls-3 {
        fill: #2b5faa;
      }

      .cls-4 {
        fill: #3f4e56;
      }

      .cls-5 {
        fill: #4e595e;
      }

      .cls-6 {
        fill: #ed4720;
      }

      .cls-7 {
        fill: #52dddd;
      }

      .cls-8 {
        fill: #6bc7dd;
      }
    </style>
  </defs>
  <g id="manufacture" transform="translate(-2 -2)">
    <g id="Group_1209" data-name="Group 1209" transform="translate(4.133 2.533)">
      <path id="Path_332" data-name="Path 332" class="cls-1" d="M9,5.133,27.133,3l.533,2.667L9.533,8.333Z" transform="translate(-7.4 -3)"/>
      <path id="Path_333" data-name="Path 333" class="cls-1" d="M6,14H9.2V34.267H6Z" transform="translate(-6 -8.133)"/>
      <path id="Path_334" data-name="Path 334" class="cls-1" d="M40,8h3.2v9.6H40Z" transform="translate(-21.867 -5.333)"/>
    </g>
    <path id="Path_335" data-name="Path 335" class="cls-2" d="M40,8h1.6v9.6H40Z" transform="translate(-17.733 -2.8)"/>
    <circle id="Ellipse_18" data-name="Ellipse 18" class="cls-3" cx="2.667" cy="2.667" r="2.667" transform="translate(3.067 4.133)"/>
    <path id="Path_336" data-name="Path 336" class="cls-4" d="M2,51H9.467v5.867H2Z" transform="translate(0 -22.867)"/>
    <path id="Path_337" data-name="Path 337" class="cls-5" d="M8.067,11.133a1.067,1.067,0,1,1,1.067-1.067A1.067,1.067,0,0,1,8.067,11.133Z" transform="translate(-2.333 -3.267)"/>
    <path id="Path_338" data-name="Path 338" class="cls-6" d="M43.6,41.343V40.257l-.877-.387a4.121,4.121,0,0,0-.205-.657L43,38.379a4.9,4.9,0,0,0-.629-.879l-.928.213a4.014,4.014,0,0,0-.544-.4l-.089-.97A4.687,4.687,0,0,0,39.8,36l-.633.734H38.49L37.858,36a4.686,4.686,0,0,0-1.01.34l-.089.97a4.01,4.01,0,0,0-.544.4l-.928-.213a4.905,4.905,0,0,0-.629.879l.483.834a4.114,4.114,0,0,0-.205.657l-.877.387v1.087l.877.387a4.122,4.122,0,0,0,.205.657l-.483.834a4.9,4.9,0,0,0,.629.879l.928-.213a4.008,4.008,0,0,0,.544.4l.089.97a4.687,4.687,0,0,0,1.01.34l.633-.734h.674l.633.734a4.688,4.688,0,0,0,1.01-.34l.089-.97a4.009,4.009,0,0,0,.544-.4l.928.213A4.906,4.906,0,0,0,43,43.221l-.483-.834a4.117,4.117,0,0,0,.205-.657Zm-4.769,1.59A2.133,2.133,0,1,1,40.961,40.8,2.133,2.133,0,0,1,38.827,42.933Z" transform="translate(-14.961 -15.867)"/>
    <path id="Path_339" data-name="Path 339" class="cls-6" d="M56,60h1.067v1.067H56Z" transform="translate(-25.2 -27.067)"/>
    <path id="Path_340" data-name="Path 340" class="cls-6" d="M60,60h1.067v1.067H60Z" transform="translate(-27.067 -27.067)"/>
    <path id="Path_341" data-name="Path 341" class="cls-5" d="M2,51l3.733,5.867L9.467,51Z" transform="translate(0 -22.867)"/>
    <path id="Path_342" data-name="Path 342" class="cls-7" d="M38.333,26.667,36.2,24H33l-2.133,2.667L26.6,27.2l-1.6,8,3.2,1.6-1.036-2.667,1.57-4.267,4.8-2.133h2.133l4.8,2.133,1.57,4.267L41,36.8l3.2-1.6-1.6-7.467Z" transform="translate(-10.733 -10.267)"/>
    <path id="Path_343" data-name="Path 343" class="cls-8" d="M33,24l-2.133,2.667L26.6,27.2l-1.6,8,3.2,1.6-1.036-2.667,1.57-4.267,4.8-2.133H34.6V24Z" transform="translate(-10.733 -10.267)"/>
    <circle id="Ellipse_19" data-name="Ellipse 19" class="cls-3" cx="2.133" cy="2.133" r="2.133" transform="translate(21.733 2)"/>
    <path id="Path_344" data-name="Path 344" class="cls-5" d="M42.067,6.133a1.067,1.067,0,1,1,1.067-1.067A1.067,1.067,0,0,1,42.067,6.133Z" transform="translate(-18.2 -0.933)"/>
  </g>
</svg>
