<svg height="507pt" viewBox="-28 0 507 507.66102" width="507pt" xmlns="http://www.w3.org/2000/svg"><path d="m356.507812 106.21875v279.949219c0 19.171875-15.542968 34.714843-34.710937 34.714843h-190.917969c-19.167968 0-34.710937-15.542968-34.710937-34.714843v-347.117188c0-19.171875 15.542969-34.710937 34.710937-34.710937h190.917969c19.167969 0 34.710937 15.539062 34.710937 34.710937zm0 0" fill="#67b9cc"/><path d="m356.160156 39.050781v45.125c-102.601562 61.378907-191.269531 143.484375-260.339844 241.074219v-286.199219c0-19.171875 15.542969-34.710937 34.710938-34.710937h190.917969c19.167969 0 34.710937 15.539062 34.710937 34.710937zm0 0" fill="#9fc9d3"/><g fill="#2c2f38"><path d="m321.796875 425.21875h-190.917969c-21.554687-.023438-39.027344-17.492188-39.050781-39.050781v-347.117188c.023437-21.558593 17.496094-39.0273435 39.050781-39.050781h190.917969c21.554687.0234375 39.023437 17.492188 39.050781 39.050781v347.117188c-.027344 21.558593-17.496094 39.027343-39.050781 39.050781zm-190.917969-416.539062c-16.773437 0-30.371094 13.597656-30.371094 30.371093v347.117188c0 16.777343 13.597657 30.375 30.371094 30.375h190.917969c16.773437 0 30.371094-13.597657 30.371094-30.375v-347.117188c0-16.773437-13.597657-30.371093-30.371094-30.371093zm0 0"/><path d="m148.253906 4.339844 13.519532 34.710937c3.074218 5.546875 9.003906 8.902344 15.34375 8.679688h98.511718c6.339844.222656 12.265625-3.132813 15.34375-8.679688l13.484375-34.710937zm0 0"/><path d="m165.609375 420.882812h34.710937v60.746094h-34.710937zm0 0"/><path d="m252.390625 420.882812h34.710937v60.746094h-34.710937zm0 0"/><path d="m139.574219 39.050781c0 4.792969-3.882813 8.679688-8.675781 8.679688-4.792969 0-8.679688-3.886719-8.679688-8.679688s3.886719-8.679687 8.679688-8.679687c4.792968 0 8.675781 3.886718 8.675781 8.679687zm0 0"/><path d="m330.492188 39.050781c0 4.792969-3.886719 8.679688-8.679688 8.679688s-8.679688-3.886719-8.679688-8.679688 3.886719-8.679687 8.679688-8.679687 8.679688 3.886718 8.679688 8.679687zm0 0"/></g><path d="m139.574219 507.660156c0-23.960937 19.425781-43.390625 43.390625-43.390625s43.390625 19.429688 43.390625 43.390625zm0 0" fill="#5e5f62"/><path d="m226.355469 507.660156c0-23.960937 19.425781-43.390625 43.390625-43.390625 23.960937 0 43.386718 19.429688 43.386718 43.390625zm0 0" fill="#5e5f62"/><path d="m312.769531 169.21875c0-28.753906-19.425781-52.066406-43.390625-52.066406-23.960937 0-43.386718 23.3125-43.386718 52.066406 0 28.757812 19.425781 52.070312 43.386718 52.070312 23.964844 0 43.390625-23.3125 43.390625-52.070312zm0 0" fill="#fff"/><path d="m225.992188 169.21875c0-28.753906-19.429688-52.066406-43.390626-52.066406-23.964843 0-43.390624 23.3125-43.390624 52.066406 0 28.757812 19.425781 52.070312 43.390624 52.070312 23.960938 0 43.390626-23.3125 43.390626-52.070312zm0 0" fill="#fff"/><path d="m191.277344 169.21875c0 4.792969-3.882813 8.679688-8.675782 8.679688-4.792968 0-8.679687-3.886719-8.679687-8.679688s3.886719-8.675781 8.679687-8.675781c4.792969 0 8.675782 3.882812 8.675782 8.675781zm0 0" fill="#5e5f62"/><path d="m182.601562 160.542969c0 4.792969-3.886718 8.675781-8.679687 8.675781s-8.675781-3.882812-8.675781-8.675781 3.882812-8.679688 8.675781-8.679688 8.679687 3.886719 8.679687 8.679688zm0 0" fill="#fff"/><path d="m278.058594 169.21875c0 4.792969-3.886719 8.679688-8.679688 8.679688-4.792968 0-8.675781-3.886719-8.675781-8.679688s3.882813-8.675781 8.675781-8.675781c4.792969 0 8.679688 3.882812 8.679688 8.675781zm0 0" fill="#5e5f62"/><path d="m243.347656 368.8125h-34.714844c-23.960937 0-43.386718-19.425781-43.386718-43.390625 0-33.546875 27.195312-78.101563 60.746094-78.101563 33.546874 0 60.742187 44.554688 60.742187 78.101563 0 23.964844-19.425781 43.390625-43.386719 43.390625zm0 0" fill="#802d40"/><path d="m147.890625 91.117188c-3.511719 0-6.675781-2.113282-8.015625-5.355469-1.34375-3.242188-.601562-6.972657 1.878906-9.457031 14.128906-12.902344 34.1875-17.039063 52.265625-10.769532 2.945313.980469 5.144531 3.457032 5.769531 6.496094.625 3.042969-.421874 6.183594-2.742187 8.246094-2.320313 2.058594-5.566406 2.726562-8.511719 1.746094-11.847656-4.195313-25.039062-1.675782-34.511718 6.585937-1.632813 1.617187-3.839844 2.519531-6.132813 2.507813zm0 0" fill="#285680"/><path d="m304.09375 91.117188c-2.277344-.003907-4.457031-.902344-6.078125-2.496094-9.476563-8.277344-22.675781-10.808594-34.546875-6.632813-2.945312.980469-6.1875.316407-8.507812-1.746093-2.320313-2.0625-3.367188-5.203126-2.742188-8.242188.625-3.042969 2.820312-5.519531 5.765625-6.5 18.078125-6.289062 38.152344-2.152344 52.269531 10.769531 2.507813 2.484375 3.265625 6.238281 1.914063 9.496094-1.355469 3.261719-4.546875 5.378906-8.074219 5.351563zm0 0" fill="#285680"/><path d="m286.734375 325.421875c.035156 11.519531-4.523437 22.578125-12.667969 30.722656-8.144531 8.144531-19.203125 12.703125-30.71875 12.667969h-34.714844c-23.960937 0-43.386718-19.425781-43.386718-43.390625-.023438-3.050781.210937-6.097656.691406-9.109375 5.207031-3.210938 38.53125-21.867188 70.378906 2.082031 16.695313-7.976562 36.542969-5.210937 50.417969 7.027344zm0 0" fill="#ff5364"/><path d="m269.378906 160.542969c0 4.792969-3.882812 8.675781-8.675781 8.675781s-8.679687-3.882812-8.679687-8.675781 3.886718-8.679688 8.679687-8.679688 8.675781 3.886719 8.675781 8.679688zm0 0" fill="#fff"/><path d="m68.398438 211.136719-3.382813 10.152343-22.21875 66.558594 51.113281-5.726562c.75-.074219 1.503906-.101563 2.257813-.085938v34.796875l-76.539063 8.503907c-.632812.074218-1.273437.101562-1.910156.085937-5.585938.027344-10.839844-2.644531-14.109375-7.171875-3.269531-4.527344-4.15625-10.355469-2.378906-15.648438l36.101562-108.390624 1.128907-3.46875zm0 0" fill="#2c2f38"/><path d="m80.878906 137.207031c-7.09375-2.835937-15.070312-2.417969-21.824218 1.148438-6.757813 3.5625-11.605469 9.914062-13.261719 17.371093l-6.863281 30.851563c-2.183594 9.660156 3.753906 19.296875 13.363281 21.691406l9.675781 2.421875c4.980469 1.246094 10.253906.332032 14.527344-2.515625 12.082031-8.054687 19.335937-21.621093 19.324218-36.144531v-12.746094c0-9.722656-5.917968-18.464844-14.941406-22.078125zm0 0" fill="#5e5f62"/><path d="m398.898438 200.9375 14.96875-10.195312.566406 1.734374.5625 1.734376 36.101562 108.390624c1.804688 5.617188.699219 11.765626-2.953125 16.402344-1.652343 2-3.726562 3.617188-6.074219 4.734375-2.328124 1.109375-4.878906 1.6875-7.460937 1.683594h-.957031c-.316406-.003906-.636719-.03125-.953125-.078125l-38.269531-4.25-38.269532-4.261719v-34.796875h1.128906c.371094 0 .738282 0 1.128907.078125l25.554687 2.863281 25.558594 2.863282-11.109375-33.28125-11.109375-33.269532-1.734375-5.078124-1.734375-5.074219zm0 0" fill="#2c2f38"/><path d="m371.449219 137.207031c7.09375-2.835937 15.070312-2.417969 21.824219 1.148438 6.753906 3.5625 11.605468 9.914062 13.261718 17.371093l3.472656 15.4375 3.425782 15.414063c2.144531 9.640625-3.78125 19.234375-13.363282 21.632813l-4.84375 1.207031-4.832031 1.214843c-4.980469 1.242188-10.253906.328126-14.527343-2.519531-12.066407-8.046875-19.316407-21.59375-19.316407-36.097656v-12.730469c0-9.722656 5.917969-18.464844 14.941407-22.078125zm0 0" fill="#5e5f62"/><path d="m425.582031 4.339844c14.378907 0 26.035157 11.65625 26.035157 26.03125v69.425781c0 14.378906-11.65625 26.035156-26.035157 26.035156-14.375 0-26.03125-11.65625-26.03125-26.035156v-69.425781c0-14.375 11.65625-26.03125 26.03125-26.03125zm0 0" fill="#c03a2b"/><path d="m451.617188 186.578125c0 14.375-11.65625 26.03125-26.035157 26.03125-14.375 0-26.03125-11.65625-26.03125-26.03125 0-14.378906 11.65625-26.035156 26.03125-26.035156 14.378907 0 26.035157 11.65625 26.035157 26.035156zm0 0" fill="#c03a2b"/></svg>