<svg xmlns="http://www.w3.org/2000/svg" height="511.99998pt" version="1.1" viewBox="1 1 511.99998 511.99998" width="511.99998pt">
<g id="surface1">
<path d="M 0 494.34375 L 0 512 L 194.207031 512 L 194.207031 494.34375 C 194.207031 484.59375 186.300781 476.691406 176.550781 476.691406 L 17.65625 476.691406 C 7.90625 476.6875 0 484.59375 0 494.34375 Z M 0 494.34375 " style=" stroke:none;fill-rule:nonzero;fill:rgb(42.745098%,43.137255%,44.313725%);fill-opacity:1;" />
<path d="M 205.433594 194.03125 L 176.550781 202.59375 L 176.550781 88.277344 L 17.65625 88.277344 L 17.65625 476.6875 L 176.550781 476.6875 L 176.550781 406.066406 C 176.582031 357.796875 209.257812 315.65625 256 303.605469 L 256 182.421875 C 238.925781 185.253906 222.039062 189.132812 205.433594 194.03125 Z M 205.433594 194.03125 " style=" stroke:none;fill-rule:nonzero;fill:rgb(81.960784%,82.745098%,83.137255%);fill-opacity:1;" />
<path d="M 388.414062 300.136719 L 476.6875 300.136719 L 476.6875 344.277344 L 388.414062 344.277344 Z M 388.414062 300.136719 " style=" stroke:none;fill-rule:nonzero;fill:rgb(73.72549%,74.509804%,75.294118%);fill-opacity:1;" />
<path d="M 256 88.277344 L 256 22.511719 L 105.929688 0 C 57.175781 0 17.65625 39.523438 17.65625 88.277344 Z M 256 88.277344 " style=" stroke:none;fill-rule:nonzero;fill:rgb(60%,59.607843%,61.568627%);fill-opacity:1;" />
<path d="M 441.378906 176.550781 L 325.878906 176.550781 C 302.464844 176.574219 279.089844 178.539062 256 182.421875 L 256 303.605469 C 264.644531 301.339844 273.542969 300.175781 282.484375 300.136719 L 512 300.136719 L 512 247.171875 C 512 208.167969 480.382812 176.550781 441.378906 176.550781 Z M 441.378906 176.550781 " style=" stroke:none;fill-rule:nonzero;fill:rgb(87.058824%,87.843137%,87.843137%);fill-opacity:1;" />
<path d="M 459.035156 70.621094 L 459.035156 68.167969 C 459.03125 59.441406 452.65625 52.023438 444.027344 50.714844 L 256 22.511719 L 256 88.277344 L 441.378906 88.277344 C 451.128906 88.277344 459.035156 80.371094 459.035156 70.621094 Z M 459.035156 70.621094 " style=" stroke:none;fill-rule:nonzero;fill:rgb(72.156863%,71.764706%,73.72549%);fill-opacity:1;" />
<path d="M 388.414062 467.863281 C 388.414062 492.238281 408.175781 512 432.550781 512 C 456.925781 512 476.6875 492.238281 476.6875 467.863281 C 476.6875 443.488281 432.550781 379.585938 432.550781 379.585938 C 432.550781 379.585938 388.414062 443.488281 388.414062 467.863281 Z M 388.414062 467.863281 " style=" stroke:none;fill-rule:nonzero;fill:rgb(0%,68.235294%,93.72549%);fill-opacity:1;" />
</g>
</svg>