<svg xmlns="http://www.w3.org/2000/svg" viewBox="0 0 150.012 150">
  <defs>
    <style>
      .cls-1 {
        fill: #ed3237;
      }
    </style>
  </defs>
  <g id="Group_1220" data-name="Group 1220" transform="translate(-112 -258)">
    <path id="Path_353" data-name="Path 353" class="cls-1" d="M115.074,47.283A32.3,32.3,0,0,0,85.046,15.119a32.444,32.444,0,0,0-59.02,9.92A27.515,27.515,0,0,0,.431,56.574,28.027,28.027,0,0,0,28.418,79.983H52.432a49.988,49.988,0,1,0,62.642-32.7Zm-86.656,27.7A23.012,23.012,0,0,1,5.385,55.856,22.619,22.619,0,0,1,15.12,33.724a21.673,21.673,0,0,1,12.509-3.73h.016c.067,0,.36.021.427.021a2.5,2.5,0,0,0,2.464-2.087,27.446,27.446,0,0,1,50.889-9.141,2.5,2.5,0,0,0,2.089,1.25A27.336,27.336,0,0,1,110.04,45.992,49.939,49.939,0,0,0,54.329,74.984Zm71.694,64.984A44.989,44.989,0,1,1,145.1,94.979,44.989,44.989,0,0,1,100.112,139.968Zm0,0" transform="translate(111.894 258.003)"/>
    <path id="Path_354" data-name="Path 354" class="cls-1" d="M262.217,273.58a10.231,10.231,0,0,1-14.136,0,9.926,9.926,0,0,1-2.93-7.069,2.5,2.5,0,0,0-5,0,15,15,0,0,0,25.6,10.6,2.5,2.5,0,1,0-3.534-3.534Zm0,0" transform="translate(-53.14 76.473)"/>
    <path id="Path_355" data-name="Path 355" class="cls-1" d="M256.2,236.528a22.494,22.494,0,1,0-3.534,3.534l19.54,19.54a2.5,2.5,0,0,0,3.534-3.534Zm-29.94-1.662a17.5,17.5,0,1,1,24.744,0A17.5,17.5,0,0,1,226.263,234.866Zm0,0" transform="translate(-36.625 120.491)"/>
    <path id="Path_356" data-name="Path 356" class="cls-1" d="M32.578,320.012a17.464,17.464,0,0,0-14,27.954L.818,365.733a2.5,2.5,0,1,0,3.534,3.534L22.122,351.5a17.5,17.5,0,1,0,10.456-31.493Zm0,29.993a12.5,12.5,0,1,1,12.264-10.054A12.459,12.459,0,0,1,32.578,350Zm0,0" transform="translate(111.944 37.969)"/>
  </g>
</svg>
